# MagicaVoxel @ Ephtracy

# group
o 

# material
mtllib chr_magician.mtl
usemtl palette

# normals
vn -1 0 0
vn 1 0 0
vn 0 0 1
vn 0 0 -1
vn 0 -1 0
vn 0 1 0

# texcoords
vt 0.0292969 0.5
vt 0.544922 0.5
vt 0.958984 0.5

# verts
v -0.4 0.6 0.4
v -0.4 0.6 0.3
v -0.4 0.6 -0.2
v -0.4 0.8 0.4
v -0.4 0.8 0.3
v -0.4 0.8 -0.2
v -0.4 1.1 0.1
v -0.4 1.1 -0.1
v -0.4 1.2 0.1
v -0.4 1.2 -0.1
v -0.3 0 0.2
v -0.3 0 -0.4
v -0.3 0.2 -0.2
v -0.3 0.2 -0.4
v -0.3 0.6 0.2
v -0.3 0.6 -0.2
v -0.3 1.1 0.2
v -0.3 1.1 0.1
v -0.3 1.1 -0.1
v -0.3 1.1 -0.2
v -0.3 1.2 0.2
v -0.3 1.2 0.1
v -0.3 1.2 -0.1
v -0.3 1.2 -0.2
v -0.2 0.8 0.2
v -0.2 0.8 -0.1
v -0.2 1.1 0.3
v -0.2 1.1 0.2
v -0.2 1.1 -0.1
v -0.2 1.1 -0.2
v -0.2 1.1 -0.3
v -0.2 1.2 0.3
v -0.2 1.2 0.2
v -0.2 1.2 0.1
v -0.2 1.2 -0.1
v -0.2 1.2 -0.2
v -0.2 1.2 -0.3
v -0.2 1.3 0.1
v -0.2 1.3 -0.1
v -0.1 0.6 0.3
v -0.1 0.6 0.2
v -0.1 0.8 0.2
v -0.1 0.9 0.3
v -0.1 0.9 0.2
v -0.1 1.2 0.2
v -0.1 1.2 0.1
v -0.1 1.3 0.2
v -0.1 1.3 0.1
v -0.1 1.3 -0.1
v -0.1 1.3 -0.2
v -0.1 1.3 -0.3
v -0.1 1.4 -0.1
v -0.1 1.4 -0.2
v -0.1 1.5 0.1
v -0.1 1.5 -0.3
v 0.3 0.6 0.4
v 0.3 0.6 0.3
v 0.3 0.6 0.2
v 0.3 0.8 0.4
v 0.3 0.8 0.3
v 0.3 0.8 0.2
v -0.3 0.6 0.4
v -0.3 0.6 0.3
v -0.3 0.6 0.2
v -0.3 0.8 0.4
v -0.3 0.8 0.3
v -0.3 0.8 0.2
v 0.1 0.6 0.3
v 0.1 0.6 0.2
v 0.1 0.8 0.2
v 0.1 0.9 0.3
v 0.1 0.9 0.2
v 0.1 1.2 0.2
v 0.1 1.2 0.1
v 0.1 1.3 0.2
v 0.1 1.3 0.1
v 0.1 1.3 -0.1
v 0.1 1.3 -0.2
v 0.1 1.3 -0.3
v 0.1 1.4 -0.1
v 0.1 1.4 -0.2
v 0.1 1.5 0.1
v 0.1 1.5 -0.3
v 0.2 0.8 0.2
v 0.2 0.8 -0.1
v 0.2 1.1 0.3
v 0.2 1.1 0.2
v 0.2 1.1 -0.1
v 0.2 1.1 -0.2
v 0.2 1.1 -0.3
v 0.2 1.2 0.3
v 0.2 1.2 0.2
v 0.2 1.2 0.1
v 0.2 1.2 -0.1
v 0.2 1.2 -0.2
v 0.2 1.2 -0.3
v 0.2 1.3 0.1
v 0.2 1.3 -0.1
v 0.3 0 0.2
v 0.3 0 -0.4
v 0.3 0.2 -0.2
v 0.3 0.2 -0.4
v 0.3 0.6 0.2
v 0.3 0.6 -0.2
v 0.3 1.1 0.2
v 0.3 1.1 0.1
v 0.3 1.1 -0.1
v 0.3 1.1 -0.2
v 0.3 1.2 0.2
v 0.3 1.2 0.1
v 0.3 1.2 -0.1
v 0.3 1.2 -0.2
v 0.4 0.6 0.4
v 0.4 0.6 0.3
v 0.4 0.6 -0.2
v 0.4 0.8 0.4
v 0.4 0.8 0.3
v 0.4 0.8 -0.2
v 0.4 1.1 0.1
v 0.4 1.1 -0.1
v 0.4 1.2 0.1
v 0.4 1.2 -0.1
v -0.4 0.6 0.4
v -0.4 0.8 0.4
v -0.3 0.6 0.4
v -0.3 0.8 0.4
v 0.3 0.6 0.4
v 0.3 0.8 0.4
v 0.4 0.6 0.4
v 0.4 0.8 0.4
v -0.2 1.1 0.3
v -0.2 1.2 0.3
v -0.1 0.6 0.3
v -0.1 0.9 0.3
v 0.1 0.6 0.3
v 0.1 0.9 0.3
v 0.2 1.1 0.3
v 0.2 1.2 0.3
v -0.3 0 0.2
v -0.3 0.6 0.2
v -0.3 0.8 0.2
v -0.3 1.1 0.2
v -0.3 1.2 0.2
v -0.2 0.8 0.2
v -0.2 1.1 0.2
v -0.2 1.2 0.2
v -0.1 0.6 0.2
v -0.1 0.8 0.2
v -0.1 0.9 0.2
v -0.1 1.2 0.2
v -0.1 1.3 0.2
v 0.1 0.6 0.2
v 0.1 0.8 0.2
v 0.1 0.9 0.2
v 0.1 1.2 0.2
v 0.1 1.3 0.2
v 0.2 0.8 0.2
v 0.2 1.1 0.2
v 0.2 1.2 0.2
v 0.3 0 0.2
v 0.3 0.6 0.2
v 0.3 0.8 0.2
v 0.3 1.1 0.2
v 0.3 1.2 0.2
v -0.4 1.1 0.1
v -0.4 1.2 0.1
v -0.3 1.1 0.1
v -0.3 1.2 0.1
v -0.2 1.2 0.1
v -0.2 1.3 0.1
v -0.1 1.2 0.1
v -0.1 1.3 0.1
v -0.1 1.5 0.1
v 0.1 1.2 0.1
v 0.1 1.3 0.1
v 0.1 1.5 0.1
v 0.2 1.2 0.1
v 0.2 1.3 0.1
v 0.3 1.1 0.1
v 0.3 1.2 0.1
v 0.4 1.1 0.1
v 0.4 1.2 0.1
v -0.1 1.3 -0.2
v -0.1 1.4 -0.2
v 0.1 1.3 -0.2
v 0.1 1.4 -0.2
v -0.4 1.1 -0.1
v -0.4 1.2 -0.1
v -0.3 1.1 -0.1
v -0.3 1.2 -0.1
v -0.2 0.8 -0.1
v -0.2 1.1 -0.1
v -0.2 1.2 -0.1
v -0.2 1.3 -0.1
v -0.1 1.3 -0.1
v -0.1 1.4 -0.1
v 0.1 1.3 -0.1
v 0.1 1.4 -0.1
v 0.2 0.8 -0.1
v 0.2 1.1 -0.1
v 0.2 1.2 -0.1
v 0.2 1.3 -0.1
v 0.3 1.1 -0.1
v 0.3 1.2 -0.1
v 0.4 1.1 -0.1
v 0.4 1.2 -0.1
v -0.4 0.6 -0.2
v -0.4 0.8 -0.2
v -0.3 0.2 -0.2
v -0.3 0.6 -0.2
v -0.3 1.1 -0.2
v -0.3 1.2 -0.2
v -0.2 1.1 -0.2
v -0.2 1.2 -0.2
v 0.2 1.1 -0.2
v 0.2 1.2 -0.2
v 0.3 0.2 -0.2
v 0.3 0.6 -0.2
v 0.3 1.1 -0.2
v 0.3 1.2 -0.2
v 0.4 0.6 -0.2
v 0.4 0.8 -0.2
v -0.2 1.1 -0.3
v -0.2 1.2 -0.3
v -0.1 1.3 -0.3
v -0.1 1.5 -0.3
v 0.1 1.3 -0.3
v 0.1 1.5 -0.3
v 0.2 1.1 -0.3
v 0.2 1.2 -0.3
v -0.3 0 -0.4
v -0.3 0.2 -0.4
v 0.3 0 -0.4
v 0.3 0.2 -0.4
v -0.3 0 0.2
v 0.3 0 0.2
v -0.3 0 -0.4
v 0.3 0 -0.4
v -0.4 0.6 0.4
v -0.3 0.6 0.4
v 0.3 0.6 0.4
v 0.4 0.6 0.4
v -0.4 0.6 0.3
v -0.3 0.6 0.3
v -0.1 0.6 0.3
v 0.1 0.6 0.3
v 0.3 0.6 0.3
v 0.4 0.6 0.3
v -0.3 0.6 0.2
v -0.1 0.6 0.2
v 0.1 0.6 0.2
v 0.3 0.6 0.2
v -0.4 0.6 -0.2
v -0.3 0.6 -0.2
v 0.3 0.6 -0.2
v 0.4 0.6 -0.2
v -0.2 1.1 0.3
v 0.2 1.1 0.3
v -0.3 1.1 0.2
v -0.2 1.1 0.2
v 0.2 1.1 0.2
v 0.3 1.1 0.2
v -0.4 1.1 0.1
v -0.3 1.1 0.1
v 0.3 1.1 0.1
v 0.4 1.1 0.1
v -0.4 1.1 -0.1
v -0.3 1.1 -0.1
v -0.2 1.1 -0.1
v 0.2 1.1 -0.1
v 0.3 1.1 -0.1
v 0.4 1.1 -0.1
v -0.3 1.1 -0.2
v -0.2 1.1 -0.2
v 0.2 1.1 -0.2
v 0.3 1.1 -0.2
v -0.2 1.1 -0.3
v 0.2 1.1 -0.3
v -0.1 1.3 -0.2
v 0.1 1.3 -0.2
v -0.1 1.3 -0.3
v 0.1 1.3 -0.3
v -0.1 1.4 -0.1
v 0.1 1.4 -0.1
v -0.1 1.4 -0.2
v 0.1 1.4 -0.2
v -0.3 0.2 -0.2
v 0.3 0.2 -0.2
v -0.3 0.2 -0.4
v 0.3 0.2 -0.4
v -0.4 0.8 0.4
v -0.3 0.8 0.4
v 0.3 0.8 0.4
v 0.4 0.8 0.4
v -0.4 0.8 0.3
v -0.3 0.8 0.3
v 0.3 0.8 0.3
v 0.4 0.8 0.3
v -0.3 0.8 0.2
v -0.2 0.8 0.2
v 0.2 0.8 0.2
v 0.3 0.8 0.2
v -0.2 0.8 -0.1
v 0.2 0.8 -0.1
v -0.4 0.8 -0.2
v 0.4 0.8 -0.2
v -0.1 0.9 0.3
v 0.1 0.9 0.3
v -0.1 0.9 0.2
v 0.1 0.9 0.2
v -0.2 1.2 0.3
v 0.2 1.2 0.3
v -0.3 1.2 0.2
v -0.2 1.2 0.2
v -0.1 1.2 0.2
v 0.1 1.2 0.2
v 0.2 1.2 0.2
v 0.3 1.2 0.2
v -0.4 1.2 0.1
v -0.3 1.2 0.1
v -0.2 1.2 0.1
v -0.1 1.2 0.1
v 0.1 1.2 0.1
v 0.2 1.2 0.1
v 0.3 1.2 0.1
v 0.4 1.2 0.1
v -0.4 1.2 -0.1
v -0.3 1.2 -0.1
v -0.2 1.2 -0.1
v 0.2 1.2 -0.1
v 0.3 1.2 -0.1
v 0.4 1.2 -0.1
v -0.3 1.2 -0.2
v -0.2 1.2 -0.2
v 0.2 1.2 -0.2
v 0.3 1.2 -0.2
v -0.2 1.2 -0.3
v 0.2 1.2 -0.3
v -0.1 1.3 0.2
v 0.1 1.3 0.2
v -0.2 1.3 0.1
v -0.1 1.3 0.1
v 0.1 1.3 0.1
v 0.2 1.3 0.1
v -0.2 1.3 -0.1
v -0.1 1.3 -0.1
v 0.1 1.3 -0.1
v 0.2 1.3 -0.1
v -0.1 1.5 0.1
v 0.1 1.5 0.1
v -0.1 1.5 -0.3
v 0.1 1.5 -0.3

# faces
f 4/1/1 2/1/1 1/1/1
f 5/2/1 3/2/1 2/2/1
f 5/1/1 2/1/1 4/1/1
f 6/2/1 3/2/1 5/2/1
f 9/2/1 8/2/1 7/2/1
f 10/2/1 8/2/1 9/2/1
f 13/2/1 12/2/1 11/2/1
f 14/2/1 12/2/1 13/2/1
f 15/2/1 13/2/1 11/2/1
f 16/2/1 13/2/1 15/2/1
f 21/2/1 18/2/1 17/2/1
f 22/2/1 18/2/1 21/2/1
f 23/2/1 20/2/1 19/2/1
f 24/2/1 20/2/1 23/2/1
f 28/1/1 26/1/1 25/1/1
f 29/1/1 26/1/1 28/1/1
f 32/2/1 28/2/1 27/2/1
f 33/2/1 28/2/1 32/2/1
f 36/2/1 31/2/1 30/2/1
f 37/2/1 31/2/1 36/2/1
f 38/2/1 35/2/1 34/2/1
f 39/2/1 35/2/1 38/2/1
f 42/3/1 41/3/1 40/3/1
f 43/3/1 42/3/1 40/3/1
f 44/3/1 42/3/1 43/3/1
f 47/2/1 46/2/1 45/2/1
f 48/2/1 46/2/1 47/2/1
f 52/2/1 49/2/1 48/2/1
f 53/2/1 51/2/1 50/2/1
f 54/2/1 52/2/1 48/2/1
f 54/2/1 53/2/1 52/2/1
f 55/2/1 51/2/1 53/2/1
f 55/2/1 53/2/1 54/2/1
f 59/1/1 57/1/1 56/1/1
f 60/2/1 58/2/1 57/2/1
f 60/1/1 57/1/1 59/1/1
f 61/2/1 58/2/1 60/2/1
f 62/1/2 63/1/2 65/1/2
f 63/2/2 64/2/2 66/2/2
f 65/1/2 63/1/2 66/1/2
f 66/2/2 64/2/2 67/2/2
f 68/3/2 69/3/2 70/3/2
f 68/3/2 70/3/2 71/3/2
f 71/3/2 70/3/2 72/3/2
f 73/2/2 74/2/2 75/2/2
f 75/2/2 74/2/2 76/2/2
f 76/2/2 77/2/2 80/2/2
f 78/2/2 79/2/2 81/2/2
f 76/2/2 80/2/2 82/2/2
f 80/2/2 81/2/2 82/2/2
f 81/2/2 79/2/2 83/2/2
f 82/2/2 81/2/2 83/2/2
f 84/1/2 85/1/2 87/1/2
f 87/1/2 85/1/2 88/1/2
f 86/2/2 87/2/2 91/2/2
f 91/2/2 87/2/2 92/2/2
f 89/2/2 90/2/2 95/2/2
f 95/2/2 90/2/2 96/2/2
f 93/2/2 94/2/2 97/2/2
f 97/2/2 94/2/2 98/2/2
f 99/2/2 100/2/2 101/2/2
f 101/2/2 100/2/2 102/2/2
f 99/2/2 101/2/2 103/2/2
f 103/2/2 101/2/2 104/2/2
f 105/2/2 106/2/2 109/2/2
f 109/2/2 106/2/2 110/2/2
f 107/2/2 108/2/2 111/2/2
f 111/2/2 108/2/2 112/2/2
f 113/1/2 114/1/2 116/1/2
f 114/2/2 115/2/2 117/2/2
f 116/1/2 114/1/2 117/1/2
f 117/2/2 115/2/2 118/2/2
f 119/2/2 120/2/2 121/2/2
f 121/2/2 120/2/2 122/2/2
f 125/1/3 124/1/3 123/1/3
f 126/1/3 124/1/3 125/1/3
f 129/1/3 128/1/3 127/1/3
f 130/1/3 128/1/3 129/1/3
f 135/3/3 134/3/3 133/3/3
f 136/3/3 134/3/3 135/3/3
f 137/2/3 132/2/3 131/2/3
f 138/2/3 132/2/3 137/2/3
f 144/2/3 140/2/3 139/2/3
f 144/2/3 141/2/3 140/2/3
f 145/2/3 143/2/3 142/2/3
f 146/2/3 143/2/3 145/2/3
f 147/2/3 144/2/3 139/2/3
f 148/1/3 145/1/3 144/1/3
f 148/2/3 144/2/3 147/2/3
f 149/1/3 145/1/3 148/1/3
f 152/2/3 147/2/3 139/2/3
f 154/1/3 145/1/3 149/1/3
f 155/2/3 151/2/3 150/2/3
f 156/2/3 151/2/3 155/2/3
f 157/2/3 153/2/3 152/2/3
f 157/1/3 154/1/3 153/1/3
f 158/1/3 145/1/3 154/1/3
f 158/1/3 154/1/3 157/1/3
f 160/2/3 152/2/3 139/2/3
f 160/2/3 157/2/3 152/2/3
f 161/2/3 157/2/3 160/2/3
f 162/2/3 157/2/3 161/2/3
f 163/2/3 159/2/3 158/2/3
f 164/2/3 159/2/3 163/2/3
f 167/2/3 166/2/3 165/2/3
f 168/2/3 166/2/3 167/2/3
f 171/2/3 170/2/3 169/2/3
f 172/2/3 170/2/3 171/2/3
f 175/2/3 173/2/3 172/2/3
f 176/2/3 173/2/3 175/2/3
f 177/2/3 175/2/3 174/2/3
f 178/2/3 175/2/3 177/2/3
f 181/2/3 180/2/3 179/2/3
f 182/2/3 180/2/3 181/2/3
f 185/2/3 184/2/3 183/2/3
f 186/2/3 184/2/3 185/2/3
f 187/2/4 188/2/4 189/2/4
f 189/2/4 188/2/4 190/2/4
f 193/2/4 194/2/4 195/2/4
f 193/2/4 195/2/4 197/2/4
f 195/2/4 196/2/4 197/2/4
f 197/2/4 196/2/4 198/2/4
f 191/1/4 192/1/4 199/1/4
f 199/1/4 192/1/4 200/1/4
f 193/2/4 197/2/4 201/2/4
f 201/2/4 197/2/4 202/2/4
f 203/2/4 204/2/4 205/2/4
f 205/2/4 204/2/4 206/2/4
f 207/2/4 208/2/4 210/2/4
f 211/2/4 212/2/4 213/2/4
f 213/2/4 212/2/4 214/2/4
f 209/2/4 210/2/4 217/2/4
f 210/2/4 208/2/4 218/2/4
f 217/2/4 210/2/4 218/2/4
f 215/2/4 216/2/4 219/2/4
f 219/2/4 216/2/4 220/2/4
f 218/2/4 208/2/4 221/2/4
f 221/2/4 208/2/4 222/2/4
f 225/2/4 226/2/4 227/2/4
f 227/2/4 226/2/4 228/2/4
f 223/2/4 224/2/4 229/2/4
f 229/2/4 224/2/4 230/2/4
f 231/2/4 232/2/4 233/2/4
f 233/2/4 232/2/4 234/2/4
f 237/2/5 236/2/5 235/2/5
f 238/2/5 236/2/5 237/2/5
f 243/1/5 240/1/5 239/1/5
f 244/1/5 240/1/5 243/1/5
f 247/1/5 242/1/5 241/1/5
f 248/1/5 242/1/5 247/1/5
f 249/2/5 244/2/5 243/2/5
f 250/3/5 246/3/5 245/3/5
f 251/3/5 246/3/5 250/3/5
f 252/2/5 248/2/5 247/2/5
f 253/2/5 249/2/5 243/2/5
f 254/2/5 249/2/5 253/2/5
f 255/2/5 248/2/5 252/2/5
f 256/2/5 248/2/5 255/2/5
f 260/2/5 258/2/5 257/2/5
f 261/2/5 258/2/5 260/2/5
f 264/2/5 260/2/5 259/2/5
f 265/2/5 262/2/5 261/2/5
f 267/2/5 264/2/5 263/2/5
f 268/2/5 260/2/5 264/2/5
f 268/2/5 264/2/5 267/2/5
f 269/2/5 260/2/5 268/2/5
f 270/2/5 266/2/5 265/2/5
f 270/2/5 265/2/5 261/2/5
f 271/2/5 266/2/5 270/2/5
f 272/2/5 266/2/5 271/2/5
f 273/2/5 269/2/5 268/2/5
f 273/2/5 271/2/5 270/2/5
f 273/2/5 270/2/5 269/2/5
f 274/2/5 271/2/5 273/2/5
f 275/2/5 271/2/5 274/2/5
f 276/2/5 271/2/5 275/2/5
f 277/2/5 275/2/5 274/2/5
f 278/2/5 275/2/5 277/2/5
f 281/2/5 280/2/5 279/2/5
f 282/2/5 280/2/5 281/2/5
f 285/2/5 284/2/5 283/2/5
f 286/2/5 284/2/5 285/2/5
f 287/2/6 288/2/6 289/2/6
f 289/2/6 288/2/6 290/2/6
f 291/1/6 292/1/6 295/1/6
f 295/1/6 292/1/6 296/1/6
f 293/1/6 294/1/6 297/1/6
f 297/1/6 294/1/6 298/1/6
f 295/2/6 296/2/6 299/2/6
f 297/2/6 298/2/6 302/2/6
f 299/2/6 300/2/6 303/2/6
f 301/2/6 302/2/6 304/2/6
f 299/2/6 303/2/6 305/2/6
f 303/2/6 304/2/6 305/2/6
f 295/2/6 299/2/6 305/2/6
f 304/2/6 302/2/6 306/2/6
f 305/2/6 304/2/6 306/2/6
f 302/2/6 298/2/6 306/2/6
f 307/3/6 308/3/6 309/3/6
f 309/3/6 308/3/6 310/3/6
f 311/2/6 312/2/6 314/2/6
f 314/2/6 312/2/6 315/2/6
f 315/2/6 312/2/6 316/2/6
f 316/2/6 312/2/6 317/2/6
f 313/2/6 314/2/6 320/2/6
f 314/2/6 315/2/6 320/2/6
f 320/2/6 315/2/6 321/2/6
f 321/2/6 315/2/6 322/2/6
f 316/2/6 317/2/6 323/2/6
f 317/2/6 318/2/6 323/2/6
f 323/2/6 318/2/6 324/2/6
f 324/2/6 318/2/6 325/2/6
f 320/2/6 321/2/6 327/2/6
f 319/2/6 320/2/6 327/2/6
f 327/2/6 321/2/6 328/2/6
f 328/2/6 321/2/6 329/2/6
f 325/2/6 326/2/6 330/2/6
f 324/2/6 325/2/6 330/2/6
f 330/2/6 326/2/6 331/2/6
f 331/2/6 326/2/6 332/2/6
f 328/2/6 329/2/6 333/2/6
f 330/2/6 331/2/6 333/2/6
f 329/2/6 330/2/6 333/2/6
f 333/2/6 331/2/6 334/2/6
f 334/2/6 331/2/6 335/2/6
f 335/2/6 331/2/6 336/2/6
f 334/2/6 335/2/6 337/2/6
f 337/2/6 335/2/6 338/2/6
f 339/2/6 340/2/6 342/2/6
f 342/2/6 340/2/6 343/2/6
f 341/2/6 342/2/6 345/2/6
f 345/2/6 342/2/6 346/2/6
f 343/2/6 344/2/6 347/2/6
f 347/2/6 344/2/6 348/2/6
f 349/2/6 350/2/6 351/2/6
f 351/2/6 350/2/6 352/2/6
