# MagicaVoxel @ Ephtracy

# group
o 

# material
mtllib fireball.mtl
usemtl palette

# normals
vn 0 0 -1
vn 0 0 1
vn -1 0 0
vn 1 0 0
vn 0 -1 0
vn 0 1 0

# texcoords
vt 0.00195313 0.5
vt 0.00585938 0.5
vt 0.00976563 0.5
vt 0.0175781 0.5
vt 0.0917969 0.5
vt 0.115234 0.5
vt 0.841797 0.5

# verts
v -0.4 0.6 -0.8
v -0.2 0.6 -0.8
v -0.1 0.6 -0.8
v 0.1 0.6 -0.8
v 0.2 0.6 -0.8
v 0.4 0.6 -0.8
v -0.4 0.7 -0.8
v -0.2 0.7 -0.8
v -0.1 0.7 -0.8
v 0.1 0.7 -0.8
v 0.2 0.7 -0.8
v 0.4 0.7 -0.8
v -0.4 0.5 -0.7
v -0.2 0.5 -0.7
v -0.1 0.5 -0.7
v 0.1 0.5 -0.7
v 0.2 0.5 -0.7
v 0.4 0.5 -0.7
v -0.4 0.6 -0.7
v -0.2 0.6 -0.7
v -0.1 0.6 -0.7
v 0.1 0.6 -0.7
v 0.2 0.6 -0.7
v 0.4 0.6 -0.7
v -0.4 0.7 -0.6
v -0.2 0.7 -0.6
v -0.1 0.7 -0.6
v 0.1 0.7 -0.6
v 0.2 0.7 -0.6
v 0.4 0.7 -0.6
v -0.4 0.8 -0.6
v -0.2 0.8 -0.6
v -0.1 0.8 -0.6
v 0.1 0.8 -0.6
v 0.2 0.8 -0.6
v 0.4 0.8 -0.6
v -0.4 0.4 -0.5
v 0.4 0.4 -0.5
v -0.4 0.5 -0.5
v -0.2 0.5 -0.5
v -0.1 0.5 -0.5
v 0.1 0.5 -0.5
v 0.2 0.5 -0.5
v 0.4 0.5 -0.5
v -0.4 0.3 -0.4
v 0.4 0.3 -0.4
v -0.4 0.4 -0.4
v 0.4 0.4 -0.4
v -0.4 0.2 -0.3
v 0.4 0.2 -0.3
v -0.4 0.3 -0.3
v 0.4 0.3 -0.3
v -0.4 0.8 -0.3
v -0.2 0.8 -0.3
v -0.1 0.8 -0.3
v 0.1 0.8 -0.3
v 0.2 0.8 -0.3
v 0.4 0.8 -0.3
v -0.4 0.9 -0.3
v -0.2 0.9 -0.3
v -0.1 0.9 -0.3
v 0.1 0.9 -0.3
v 0.2 0.9 -0.3
v 0.4 0.9 -0.3
v -0.4 0.1 -0.1
v 0.4 0.1 -0.1
v -0.4 0.2 -0.1
v 0.4 0.2 -0.1
v -0.4 0.9 -0.1
v -0.2 0.9 -0.1
v -0.1 0.9 -0.1
v 0.1 0.9 -0.1
v 0.2 0.9 -0.1
v 0.4 0.9 -0.1
v -0.4 1 -0.1
v -0.2 1 -0.1
v -0.1 1 -0.1
v 0.1 1 -0.1
v 0.2 1 -0.1
v 0.4 1 -0.1
v -0.4 1 0
v -0.2 1 0
v -0.1 1 0
v 0.1 1 0
v 0.2 1 0
v 0.4 1 0
v -0.4 1.1 0
v -0.2 1.1 0
v -0.1 1.1 0
v 0.1 1.1 0
v 0.2 1.1 0
v 0.4 1.1 0
v -0.4 0 0.1
v 0.4 0 0.1
v -0.4 0.1 0.1
v 0.4 0.1 0.1
v -0.4 0 0.4
v 0.4 0 0.4
v -0.4 0.1 0.4
v 0.4 0.1 0.4
v -0.4 1 0.4
v -0.2 1 0.4
v -0.1 1 0.4
v 0.1 1 0.4
v 0.2 1 0.4
v 0.4 1 0.4
v -0.4 1.1 0.4
v -0.2 1.1 0.4
v -0.1 1.1 0.4
v 0.1 1.1 0.4
v 0.2 1.1 0.4
v 0.4 1.1 0.4
v -0.4 0.1 0.5
v 0.4 0.1 0.5
v -0.4 0.2 0.5
v 0.4 0.2 0.5
v -0.4 0.9 0.5
v 0.4 0.9 0.5
v -0.4 1 0.5
v 0.4 1 0.5
v -0.4 0.2 0.6
v 0.4 0.2 0.6
v -0.4 0.3 0.6
v 0.4 0.3 0.6
v -0.4 0.8 0.6
v 0.4 0.8 0.6
v -0.4 0.9 0.6
v 0.4 0.9 0.6
v -0.4 0.3 0.7
v 0.4 0.3 0.7
v -0.4 0.4 0.7
v 0.4 0.4 0.7
v -0.4 0.7 0.7
v 0.4 0.7 0.7
v -0.4 0.8 0.7
v 0.4 0.8 0.7
v -0.4 0.4 0.8
v 0.4 0.4 0.8
v -0.4 0.7 0.8
v 0.4 0.7 0.8
v -0.4 0.6 -0.8
v -0.4 0.7 -0.8
v -0.4 0.5 -0.7
v -0.4 0.6 -0.7
v -0.4 0.6 -0.6
v -0.4 0.7 -0.6
v -0.4 0.8 -0.6
v -0.4 0.4 -0.5
v -0.4 0.5 -0.5
v -0.4 0.6 -0.5
v -0.4 0.3 -0.4
v -0.4 0.4 -0.4
v -0.4 0.5 -0.4
v -0.4 0.2 -0.3
v -0.4 0.3 -0.3
v -0.4 0.4 -0.3
v -0.4 0.5 -0.3
v -0.4 0.6 -0.3
v -0.4 0.7 -0.3
v -0.4 0.8 -0.3
v -0.4 0.9 -0.3
v -0.4 0.4 -0.2
v -0.4 0.5 -0.2
v -0.4 0.6 -0.2
v -0.4 0.7 -0.2
v -0.4 0.1 -0.1
v -0.4 0.2 -0.1
v -0.4 0.3 -0.1
v -0.4 0.5 -0.1
v -0.4 0.6 -0.1
v -0.4 0.8 -0.1
v -0.4 0.9 -0.1
v -0.4 1 -0.1
v -0.4 0.3 0
v -0.4 0.4 0
v -0.4 0.6 0
v -0.4 0.7 0
v -0.4 0.8 0
v -0.4 0.9 0
v -0.4 1 0
v -0.4 1.1 0
v -0.4 0 0.1
v -0.4 0.1 0.1
v -0.4 0.2 0.1
v -0.4 0.4 0.1
v -0.4 0.5 0.1
v -0.4 0.7 0.1
v -0.4 0.2 0.2
v -0.4 0.3 0.2
v -0.4 0.4 0.2
v -0.4 0.7 0.2
v -0.4 0.8 0.2
v -0.4 0.9 0.2
v -0.4 0 0.4
v -0.4 0.1 0.4
v -0.4 1 0.4
v -0.4 1.1 0.4
v -0.4 0.1 0.5
v -0.4 0.2 0.5
v -0.4 0.4 0.5
v -0.4 0.5 0.5
v -0.4 0.7 0.5
v -0.4 0.8 0.5
v -0.4 0.9 0.5
v -0.4 1 0.5
v -0.4 0.2 0.6
v -0.4 0.3 0.6
v -0.4 0.4 0.6
v -0.4 0.5 0.6
v -0.4 0.6 0.6
v -0.4 0.7 0.6
v -0.4 0.8 0.6
v -0.4 0.9 0.6
v -0.4 0.3 0.7
v -0.4 0.4 0.7
v -0.4 0.6 0.7
v -0.4 0.7 0.7
v -0.4 0.8 0.7
v -0.4 0.4 0.8
v -0.4 0.7 0.8
v 0.4 0.6 -0.8
v 0.4 0.7 -0.8
v 0.4 0.5 -0.7
v 0.4 0.6 -0.7
v 0.4 0.6 -0.6
v 0.4 0.7 -0.6
v 0.4 0.8 -0.6
v 0.4 0.4 -0.5
v 0.4 0.5 -0.5
v 0.4 0.6 -0.5
v 0.4 0.3 -0.4
v 0.4 0.4 -0.4
v 0.4 0.5 -0.4
v 0.4 0.2 -0.3
v 0.4 0.3 -0.3
v 0.4 0.4 -0.3
v 0.4 0.5 -0.3
v 0.4 0.6 -0.3
v 0.4 0.7 -0.3
v 0.4 0.8 -0.3
v 0.4 0.9 -0.3
v 0.4 0.4 -0.2
v 0.4 0.5 -0.2
v 0.4 0.6 -0.2
v 0.4 0.7 -0.2
v 0.4 0.1 -0.1
v 0.4 0.2 -0.1
v 0.4 0.3 -0.1
v 0.4 0.5 -0.1
v 0.4 0.6 -0.1
v 0.4 0.8 -0.1
v 0.4 0.9 -0.1
v 0.4 1 -0.1
v 0.4 0.3 0
v 0.4 0.4 0
v 0.4 0.6 0
v 0.4 0.7 0
v 0.4 0.8 0
v 0.4 0.9 0
v 0.4 1 0
v 0.4 1.1 0
v 0.4 0 0.1
v 0.4 0.1 0.1
v 0.4 0.2 0.1
v 0.4 0.4 0.1
v 0.4 0.5 0.1
v 0.4 0.7 0.1
v 0.4 0.2 0.2
v 0.4 0.3 0.2
v 0.4 0.4 0.2
v 0.4 0.7 0.2
v 0.4 0.8 0.2
v 0.4 0.9 0.2
v 0.4 0 0.4
v 0.4 0.1 0.4
v 0.4 1 0.4
v 0.4 1.1 0.4
v 0.4 0.1 0.5
v 0.4 0.2 0.5
v 0.4 0.4 0.5
v 0.4 0.5 0.5
v 0.4 0.7 0.5
v 0.4 0.8 0.5
v 0.4 0.9 0.5
v 0.4 1 0.5
v 0.4 0.2 0.6
v 0.4 0.3 0.6
v 0.4 0.4 0.6
v 0.4 0.5 0.6
v 0.4 0.6 0.6
v 0.4 0.7 0.6
v 0.4 0.8 0.6
v 0.4 0.9 0.6
v 0.4 0.3 0.7
v 0.4 0.4 0.7
v 0.4 0.6 0.7
v 0.4 0.7 0.7
v 0.4 0.8 0.7
v 0.4 0.4 0.8
v 0.4 0.7 0.8
v -0.4 0 0.1
v -0.4 0 0.4
v 0.4 0 0.1
v 0.4 0 0.4
v -0.4 0.1 -0.1
v -0.4 0.1 0.1
v -0.4 0.1 0.4
v -0.4 0.1 0.5
v 0.4 0.1 -0.1
v 0.4 0.1 0.1
v 0.4 0.1 0.4
v 0.4 0.1 0.5
v -0.4 0.2 -0.3
v -0.4 0.2 -0.1
v -0.4 0.2 0.5
v -0.4 0.2 0.6
v 0.4 0.2 -0.3
v 0.4 0.2 -0.1
v 0.4 0.2 0.5
v 0.4 0.2 0.6
v -0.4 0.3 -0.4
v -0.4 0.3 -0.3
v -0.4 0.3 0.6
v -0.4 0.3 0.7
v 0.4 0.3 -0.4
v 0.4 0.3 -0.3
v 0.4 0.3 0.6
v 0.4 0.3 0.7
v -0.4 0.4 -0.5
v -0.4 0.4 -0.4
v -0.4 0.4 0.7
v -0.4 0.4 0.8
v 0.4 0.4 -0.5
v 0.4 0.4 -0.4
v 0.4 0.4 0.7
v 0.4 0.4 0.8
v -0.4 0.5 -0.7
v -0.4 0.5 -0.5
v -0.2 0.5 -0.7
v -0.2 0.5 -0.5
v -0.1 0.5 -0.7
v -0.1 0.5 -0.5
v 0.1 0.5 -0.7
v 0.1 0.5 -0.5
v 0.2 0.5 -0.7
v 0.2 0.5 -0.5
v 0.4 0.5 -0.7
v 0.4 0.5 -0.5
v -0.4 0.6 -0.8
v -0.4 0.6 -0.7
v -0.2 0.6 -0.8
v -0.2 0.6 -0.7
v -0.1 0.6 -0.8
v -0.1 0.6 -0.7
v 0.1 0.6 -0.8
v 0.1 0.6 -0.7
v 0.2 0.6 -0.8
v 0.2 0.6 -0.7
v 0.4 0.6 -0.8
v 0.4 0.6 -0.7
v -0.4 0.7 -0.8
v -0.4 0.7 -0.6
v -0.4 0.7 0.7
v -0.4 0.7 0.8
v -0.2 0.7 -0.8
v -0.2 0.7 -0.6
v -0.1 0.7 -0.8
v -0.1 0.7 -0.6
v 0.1 0.7 -0.8
v 0.1 0.7 -0.6
v 0.2 0.7 -0.8
v 0.2 0.7 -0.6
v 0.4 0.7 -0.8
v 0.4 0.7 -0.6
v 0.4 0.7 0.7
v 0.4 0.7 0.8
v -0.4 0.8 -0.6
v -0.4 0.8 -0.3
v -0.4 0.8 0.6
v -0.4 0.8 0.7
v -0.2 0.8 -0.6
v -0.2 0.8 -0.3
v -0.1 0.8 -0.6
v -0.1 0.8 -0.3
v 0.1 0.8 -0.6
v 0.1 0.8 -0.3
v 0.2 0.8 -0.6
v 0.2 0.8 -0.3
v 0.4 0.8 -0.6
v 0.4 0.8 -0.3
v 0.4 0.8 0.6
v 0.4 0.8 0.7
v -0.4 0.9 -0.3
v -0.4 0.9 -0.1
v -0.4 0.9 0.5
v -0.4 0.9 0.6
v -0.2 0.9 -0.3
v -0.2 0.9 -0.1
v -0.1 0.9 -0.3
v -0.1 0.9 -0.1
v 0.1 0.9 -0.3
v 0.1 0.9 -0.1
v 0.2 0.9 -0.3
v 0.2 0.9 -0.1
v 0.4 0.9 -0.3
v 0.4 0.9 -0.1
v 0.4 0.9 0.5
v 0.4 0.9 0.6
v -0.4 1 -0.1
v -0.4 1 0
v -0.4 1 0.4
v -0.4 1 0.5
v -0.2 1 -0.1
v -0.2 1 0
v -0.2 1 0.4
v -0.1 1 -0.1
v -0.1 1 0
v -0.1 1 0.4
v 0.1 1 -0.1
v 0.1 1 0
v 0.1 1 0.4
v 0.2 1 -0.1
v 0.2 1 0
v 0.2 1 0.4
v 0.4 1 -0.1
v 0.4 1 0
v 0.4 1 0.4
v 0.4 1 0.5
v -0.4 1.1 0
v -0.4 1.1 0.4
v -0.2 1.1 0
v -0.2 1.1 0.4
v -0.1 1.1 0
v -0.1 1.1 0.4
v 0.1 1.1 0
v 0.1 1.1 0.4
v 0.2 1.1 0
v 0.2 1.1 0.4
v 0.4 1.1 0
v 0.4 1.1 0.4

# faces
f 7/6/1 2/6/1 1/6/1
f 8/7/1 3/7/1 2/7/1
f 8/6/1 2/6/1 7/6/1
f 9/6/1 4/6/1 3/6/1
f 9/7/1 3/7/1 8/7/1
f 10/7/1 5/7/1 4/7/1
f 10/6/1 4/6/1 9/6/1
f 11/6/1 6/6/1 5/6/1
f 11/7/1 5/7/1 10/7/1
f 12/6/1 6/6/1 11/6/1
f 19/6/1 14/6/1 13/6/1
f 20/7/1 15/7/1 14/7/1
f 20/6/1 14/6/1 19/6/1
f 21/6/1 16/6/1 15/6/1
f 21/7/1 15/7/1 20/7/1
f 22/7/1 17/7/1 16/7/1
f 22/6/1 16/6/1 21/6/1
f 23/6/1 18/6/1 17/6/1
f 23/7/1 17/7/1 22/7/1
f 24/6/1 18/6/1 23/6/1
f 31/6/1 26/6/1 25/6/1
f 32/7/1 27/7/1 26/7/1
f 32/6/1 26/6/1 31/6/1
f 33/6/1 28/6/1 27/6/1
f 33/7/1 27/7/1 32/7/1
f 34/7/1 29/7/1 28/7/1
f 34/6/1 28/6/1 33/6/1
f 35/6/1 30/6/1 29/6/1
f 35/7/1 29/7/1 34/7/1
f 36/6/1 30/6/1 35/6/1
f 39/7/1 38/7/1 37/7/1
f 40/7/1 38/7/1 39/7/1
f 41/7/1 38/7/1 40/7/1
f 42/7/1 38/7/1 41/7/1
f 43/7/1 38/7/1 42/7/1
f 44/7/1 38/7/1 43/7/1
f 47/7/1 46/7/1 45/7/1
f 48/7/1 46/7/1 47/7/1
f 51/7/1 50/7/1 49/7/1
f 52/7/1 50/7/1 51/7/1
f 59/6/1 54/6/1 53/6/1
f 60/7/1 55/7/1 54/7/1
f 60/6/1 54/6/1 59/6/1
f 61/6/1 56/6/1 55/6/1
f 61/7/1 55/7/1 60/7/1
f 62/7/1 57/7/1 56/7/1
f 62/6/1 56/6/1 61/6/1
f 63/6/1 58/6/1 57/6/1
f 63/7/1 57/7/1 62/7/1
f 64/6/1 58/6/1 63/6/1
f 67/7/1 66/7/1 65/7/1
f 68/7/1 66/7/1 67/7/1
f 75/6/1 70/6/1 69/6/1
f 76/7/1 71/7/1 70/7/1
f 76/6/1 70/6/1 75/6/1
f 77/6/1 72/6/1 71/6/1
f 77/7/1 71/7/1 76/7/1
f 78/7/1 73/7/1 72/7/1
f 78/6/1 72/6/1 77/6/1
f 79/6/1 74/6/1 73/6/1
f 79/7/1 73/7/1 78/7/1
f 80/6/1 74/6/1 79/6/1
f 87/6/1 82/6/1 81/6/1
f 88/7/1 83/7/1 82/7/1
f 88/6/1 82/6/1 87/6/1
f 89/6/1 84/6/1 83/6/1
f 89/7/1 83/7/1 88/7/1
f 90/7/1 85/7/1 84/7/1
f 90/6/1 84/6/1 89/6/1
f 91/6/1 86/6/1 85/6/1
f 91/7/1 85/7/1 90/7/1
f 92/6/1 86/6/1 91/6/1
f 95/7/1 94/7/1 93/7/1
f 96/7/1 94/7/1 95/7/1
f 97/7/2 98/7/2 99/7/2
f 99/7/2 98/7/2 100/7/2
f 101/6/2 102/6/2 107/6/2
f 102/7/2 103/7/2 108/7/2
f 107/6/2 102/6/2 108/6/2
f 103/6/2 104/6/2 109/6/2
f 108/7/2 103/7/2 109/7/2
f 104/7/2 105/7/2 110/7/2
f 109/6/2 104/6/2 110/6/2
f 105/6/2 106/6/2 111/6/2
f 110/7/2 105/7/2 111/7/2
f 111/6/2 106/6/2 112/6/2
f 113/5/2 114/5/2 115/5/2
f 115/5/2 114/5/2 116/5/2
f 117/5/2 118/5/2 119/5/2
f 119/5/2 118/5/2 120/5/2
f 121/4/2 122/4/2 123/4/2
f 123/4/2 122/4/2 124/4/2
f 125/4/2 126/4/2 127/4/2
f 127/4/2 126/4/2 128/4/2
f 129/4/2 130/4/2 131/4/2
f 131/4/2 130/4/2 132/4/2
f 133/4/2 134/4/2 135/4/2
f 135/4/2 134/4/2 136/4/2
f 137/4/2 138/4/2 139/4/2
f 139/4/2 138/4/2 140/4/2
f 144/6/3 142/6/3 141/6/3
f 145/6/3 142/6/3 144/6/3
f 145/6/3 144/6/3 143/6/3
f 146/6/3 142/6/3 145/6/3
f 149/6/3 145/6/3 143/6/3
f 150/5/3 146/5/3 145/5/3
f 150/6/3 145/6/3 149/6/3
f 152/7/3 149/7/3 148/7/3
f 153/5/3 150/5/3 149/5/3
f 153/7/3 149/7/3 152/7/3
f 155/7/3 152/7/3 151/7/3
f 156/5/3 153/5/3 152/5/3
f 156/7/3 152/7/3 155/7/3
f 157/5/3 150/5/3 153/5/3
f 157/5/3 153/5/3 156/5/3
f 158/5/3 146/5/3 150/5/3
f 158/5/3 150/5/3 157/5/3
f 159/6/3 147/6/3 146/6/3
f 159/5/3 146/5/3 158/5/3
f 160/6/3 147/6/3 159/6/3
f 162/5/3 157/5/3 156/5/3
f 162/5/3 156/5/3 155/5/3
f 163/4/3 158/4/3 157/4/3
f 163/5/3 157/5/3 162/5/3
f 164/5/3 160/5/3 159/5/3
f 164/4/3 158/4/3 163/4/3
f 164/5/3 159/5/3 158/5/3
f 165/5/3 160/5/3 164/5/3
f 167/7/3 155/7/3 154/7/3
f 168/5/3 162/5/3 155/5/3
f 168/7/3 155/7/3 167/7/3
f 169/4/3 163/4/3 162/4/3
f 169/4/3 164/4/3 163/4/3
f 169/4/3 165/4/3 164/4/3
f 170/4/3 165/4/3 169/4/3
f 171/6/3 161/6/3 160/6/3
f 171/5/3 160/5/3 165/5/3
f 172/6/3 161/6/3 171/6/3
f 174/5/3 162/5/3 168/5/3
f 174/5/3 168/5/3 167/5/3
f 175/4/3 169/4/3 162/4/3
f 175/5/3 162/5/3 174/5/3
f 176/4/3 165/4/3 170/4/3
f 176/3/3 170/3/3 169/3/3
f 177/5/3 172/5/3 171/5/3
f 177/4/3 165/4/3 176/4/3
f 177/5/3 171/5/3 165/5/3
f 178/5/3 172/5/3 177/5/3
f 179/6/3 173/6/3 172/6/3
f 179/5/3 172/5/3 178/5/3
f 180/6/3 173/6/3 179/6/3
f 183/7/3 167/7/3 166/7/3
f 184/5/3 174/5/3 167/5/3
f 184/7/3 167/7/3 183/7/3
f 185/4/3 169/4/3 175/4/3
f 185/4/3 175/4/3 174/4/3
f 186/3/3 176/3/3 169/3/3
f 186/4/3 169/4/3 185/4/3
f 186/3/3 177/3/3 176/3/3
f 187/4/3 178/4/3 177/4/3
f 187/3/3 177/3/3 186/3/3
f 188/5/3 174/5/3 184/5/3
f 188/5/3 184/5/3 183/5/3
f 189/4/3 185/4/3 174/4/3
f 189/5/3 174/5/3 188/5/3
f 190/1/3 186/1/3 185/1/3
f 190/4/3 185/4/3 189/4/3
f 190/1/3 187/1/3 186/1/3
f 191/4/3 178/4/3 187/4/3
f 191/1/3 187/1/3 190/1/3
f 192/5/3 180/5/3 179/5/3
f 192/4/3 178/4/3 191/4/3
f 192/5/3 179/5/3 178/5/3
f 193/5/3 180/5/3 192/5/3
f 194/7/3 183/7/3 182/7/3
f 195/5/3 188/5/3 183/5/3
f 195/7/3 183/7/3 194/7/3
f 196/6/3 181/6/3 180/6/3
f 196/5/3 180/5/3 193/5/3
f 197/6/3 181/6/3 196/6/3
f 198/5/3 188/5/3 195/5/3
f 199/4/3 189/4/3 188/4/3
f 199/5/3 188/5/3 198/5/3
f 200/3/3 190/3/3 189/3/3
f 200/1/3 191/1/3 190/1/3
f 201/1/3 191/1/3 200/1/3
f 202/3/3 192/3/3 191/3/3
f 202/1/3 191/1/3 201/1/3
f 203/4/3 193/4/3 192/4/3
f 203/3/3 192/3/3 202/3/3
f 204/5/3 196/5/3 193/5/3
f 204/4/3 193/4/3 203/4/3
f 205/5/3 196/5/3 204/5/3
f 206/4/3 189/4/3 199/4/3
f 207/3/3 201/3/3 200/3/3
f 207/4/3 189/4/3 206/4/3
f 207/3/3 200/3/3 189/3/3
f 208/3/3 201/3/3 207/3/3
f 209/2/3 203/2/3 202/2/3
f 209/3/3 201/3/3 208/3/3
f 209/2/3 202/2/3 201/2/3
f 210/2/3 203/2/3 209/2/3
f 211/2/3 203/2/3 210/2/3
f 212/4/3 204/4/3 203/4/3
f 212/2/3 203/2/3 211/2/3
f 213/4/3 204/4/3 212/4/3
f 214/4/3 208/4/3 207/4/3
f 215/3/3 209/3/3 208/3/3
f 215/4/3 208/4/3 214/4/3
f 215/3/3 210/3/3 209/3/3
f 216/2/3 211/2/3 210/2/3
f 216/3/3 210/3/3 215/3/3
f 217/4/3 212/4/3 211/4/3
f 217/2/3 211/2/3 216/2/3
f 218/4/3 212/4/3 217/4/3
f 219/4/3 216/4/3 215/4/3
f 219/4/3 217/4/3 216/4/3
f 220/4/3 217/4/3 219/4/3
f 221/6/4 222/6/4 224/6/4
f 224/6/4 222/6/4 225/6/4
f 223/6/4 224/6/4 225/6/4
f 225/6/4 222/6/4 226/6/4
f 223/6/4 225/6/4 229/6/4
f 225/5/4 226/5/4 230/5/4
f 229/6/4 225/6/4 230/6/4
f 228/7/4 229/7/4 232/7/4
f 229/5/4 230/5/4 233/5/4
f 232/7/4 229/7/4 233/7/4
f 231/7/4 232/7/4 235/7/4
f 232/5/4 233/5/4 236/5/4
f 235/7/4 232/7/4 236/7/4
f 233/5/4 230/5/4 237/5/4
f 236/5/4 233/5/4 237/5/4
f 230/5/4 226/5/4 238/5/4
f 237/5/4 230/5/4 238/5/4
f 226/6/4 227/6/4 239/6/4
f 238/5/4 226/5/4 239/5/4
f 239/6/4 227/6/4 240/6/4
f 236/5/4 237/5/4 242/5/4
f 235/5/4 236/5/4 242/5/4
f 237/4/4 238/4/4 243/4/4
f 242/5/4 237/5/4 243/5/4
f 239/5/4 240/5/4 244/5/4
f 243/4/4 238/4/4 244/4/4
f 238/5/4 239/5/4 244/5/4
f 244/5/4 240/5/4 245/5/4
f 234/7/4 235/7/4 247/7/4
f 235/5/4 242/5/4 248/5/4
f 247/7/4 235/7/4 248/7/4
f 242/4/4 243/4/4 249/4/4
f 243/4/4 244/4/4 249/4/4
f 244/4/4 245/4/4 249/4/4
f 249/4/4 245/4/4 250/4/4
f 240/6/4 241/6/4 251/6/4
f 245/5/4 240/5/4 251/5/4
f 251/6/4 241/6/4 252/6/4
f 248/5/4 242/5/4 254/5/4
f 247/5/4 248/5/4 254/5/4
f 242/4/4 249/4/4 255/4/4
f 254/5/4 242/5/4 255/5/4
f 250/4/4 245/4/4 256/4/4
f 249/3/4 250/3/4 256/3/4
f 251/5/4 252/5/4 257/5/4
f 256/4/4 245/4/4 257/4/4
f 245/5/4 251/5/4 257/5/4
f 257/5/4 252/5/4 258/5/4
f 252/6/4 253/6/4 259/6/4
f 258/5/4 252/5/4 259/5/4
f 259/6/4 253/6/4 260/6/4
f 246/7/4 247/7/4 263/7/4
f 247/5/4 254/5/4 264/5/4
f 263/7/4 247/7/4 264/7/4
f 255/4/4 249/4/4 265/4/4
f 254/4/4 255/4/4 265/4/4
f 249/3/4 256/3/4 266/3/4
f 265/4/4 249/4/4 266/4/4
f 256/3/4 257/3/4 266/3/4
f 257/4/4 258/4/4 267/4/4
f 266/3/4 257/3/4 267/3/4
f 264/5/4 254/5/4 268/5/4
f 263/5/4 264/5/4 268/5/4
f 254/4/4 265/4/4 269/4/4
f 268/5/4 254/5/4 269/5/4
f 265/1/4 266/1/4 270/1/4
f 269/4/4 265/4/4 270/4/4
f 266/1/4 267/1/4 270/1/4
f 267/4/4 258/4/4 271/4/4
f 270/1/4 267/1/4 271/1/4
f 259/5/4 260/5/4 272/5/4
f 271/4/4 258/4/4 272/4/4
f 258/5/4 259/5/4 272/5/4
f 272/5/4 260/5/4 273/5/4
f 262/7/4 263/7/4 274/7/4
f 263/5/4 268/5/4 275/5/4
f 274/7/4 263/7/4 275/7/4
f 260/6/4 261/6/4 276/6/4
f 273/5/4 260/5/4 276/5/4
f 276/6/4 261/6/4 277/6/4
f 275/5/4 268/5/4 278/5/4
f 268/4/4 269/4/4 279/4/4
f 278/5/4 268/5/4 279/5/4
f 269/3/4 270/3/4 280/3/4
f 270/1/4 271/1/4 280/1/4
f 280/1/4 271/1/4 281/1/4
f 271/3/4 272/3/4 282/3/4
f 281/1/4 271/1/4 282/1/4
f 272/4/4 273/4/4 283/4/4
f 282/3/4 272/3/4 283/3/4
f 273/5/4 276/5/4 284/5/4
f 283/4/4 273/4/4 284/4/4
f 284/5/4 276/5/4 285/5/4
f 279/4/4 269/4/4 286/4/4
f 280/3/4 281/3/4 287/3/4
f 286/4/4 269/4/4 287/4/4
f 269/3/4 280/3/4 287/3/4
f 287/3/4 281/3/4 288/3/4
f 282/2/4 283/2/4 289/2/4
f 288/3/4 281/3/4 289/3/4
f 281/2/4 282/2/4 289/2/4
f 289/2/4 283/2/4 290/2/4
f 290/2/4 283/2/4 291/2/4
f 283/4/4 284/4/4 292/4/4
f 291/2/4 283/2/4 292/2/4
f 292/4/4 284/4/4 293/4/4
f 287/4/4 288/4/4 294/4/4
f 288/3/4 289/3/4 295/3/4
f 294/4/4 288/4/4 295/4/4
f 289/3/4 290/3/4 295/3/4
f 290/2/4 291/2/4 296/2/4
f 295/3/4 290/3/4 296/3/4
f 291/4/4 292/4/4 297/4/4
f 296/2/4 291/2/4 297/2/4
f 297/4/4 292/4/4 298/4/4
f 295/4/4 296/4/4 299/4/4
f 296/4/4 297/4/4 299/4/4
f 299/4/4 297/4/4 300/4/4
f 303/7/5 302/7/5 301/7/5
f 304/7/5 302/7/5 303/7/5
f 309/7/5 306/7/5 305/7/5
f 310/7/5 306/7/5 309/7/5
f 311/5/5 308/5/5 307/5/5
f 312/5/5 308/5/5 311/5/5
f 317/7/5 314/7/5 313/7/5
f 318/7/5 314/7/5 317/7/5
f 319/4/5 316/4/5 315/4/5
f 320/4/5 316/4/5 319/4/5
f 325/7/5 322/7/5 321/7/5
f 326/7/5 322/7/5 325/7/5
f 327/4/5 324/4/5 323/4/5
f 328/4/5 324/4/5 327/4/5
f 333/7/5 330/7/5 329/7/5
f 334/7/5 330/7/5 333/7/5
f 335/4/5 332/4/5 331/4/5
f 336/4/5 332/4/5 335/4/5
f 339/6/5 338/6/5 337/6/5
f 340/6/5 338/6/5 339/6/5
f 341/7/5 340/7/5 339/7/5
f 342/7/5 340/7/5 341/7/5
f 343/6/5 342/6/5 341/6/5
f 344/6/5 342/6/5 343/6/5
f 345/7/5 344/7/5 343/7/5
f 346/7/5 344/7/5 345/7/5
f 347/6/5 346/6/5 345/6/5
f 348/6/5 346/6/5 347/6/5
f 351/6/5 350/6/5 349/6/5
f 352/6/5 350/6/5 351/6/5
f 353/7/5 352/7/5 351/7/5
f 354/7/5 352/7/5 353/7/5
f 355/6/5 354/6/5 353/6/5
f 356/6/5 354/6/5 355/6/5
f 357/7/5 356/7/5 355/7/5
f 358/7/5 356/7/5 357/7/5
f 359/6/5 358/6/5 357/6/5
f 360/6/5 358/6/5 359/6/5
f 361/6/6 362/6/6 365/6/6
f 365/6/6 362/6/6 366/6/6
f 365/7/6 366/7/6 367/7/6
f 367/7/6 366/7/6 368/7/6
f 367/6/6 368/6/6 369/6/6
f 369/6/6 368/6/6 370/6/6
f 369/7/6 370/7/6 371/7/6
f 371/7/6 370/7/6 372/7/6
f 371/6/6 372/6/6 373/6/6
f 373/6/6 372/6/6 374/6/6
f 363/4/6 364/4/6 375/4/6
f 375/4/6 364/4/6 376/4/6
f 377/6/6 378/6/6 381/6/6
f 381/6/6 378/6/6 382/6/6
f 381/7/6 382/7/6 383/7/6
f 383/7/6 382/7/6 384/7/6
f 383/6/6 384/6/6 385/6/6
f 385/6/6 384/6/6 386/6/6
f 385/7/6 386/7/6 387/7/6
f 387/7/6 386/7/6 388/7/6
f 387/6/6 388/6/6 389/6/6
f 389/6/6 388/6/6 390/6/6
f 379/4/6 380/4/6 391/4/6
f 391/4/6 380/4/6 392/4/6
f 393/6/6 394/6/6 397/6/6
f 397/6/6 394/6/6 398/6/6
f 397/7/6 398/7/6 399/7/6
f 399/7/6 398/7/6 400/7/6
f 399/6/6 400/6/6 401/6/6
f 401/6/6 400/6/6 402/6/6
f 401/7/6 402/7/6 403/7/6
f 403/7/6 402/7/6 404/7/6
f 403/6/6 404/6/6 405/6/6
f 405/6/6 404/6/6 406/6/6
f 395/4/6 396/4/6 407/4/6
f 407/4/6 396/4/6 408/4/6
f 409/6/6 410/6/6 413/6/6
f 413/6/6 410/6/6 414/6/6
f 411/5/6 412/5/6 415/5/6
f 413/7/6 414/7/6 416/7/6
f 416/7/6 414/7/6 417/7/6
f 415/5/6 412/5/6 418/5/6
f 416/6/6 417/6/6 419/6/6
f 419/6/6 417/6/6 420/6/6
f 418/5/6 412/5/6 421/5/6
f 419/7/6 420/7/6 422/7/6
f 422/7/6 420/7/6 423/7/6
f 421/5/6 412/5/6 424/5/6
f 422/6/6 423/6/6 425/6/6
f 425/6/6 423/6/6 426/6/6
f 424/5/6 412/5/6 427/5/6
f 427/5/6 412/5/6 428/5/6
f 429/6/6 430/6/6 431/6/6
f 431/6/6 430/6/6 432/6/6
f 431/7/6 432/7/6 433/7/6
f 433/7/6 432/7/6 434/7/6
f 433/6/6 434/6/6 435/6/6
f 435/6/6 434/6/6 436/6/6
f 435/7/6 436/7/6 437/7/6
f 437/7/6 436/7/6 438/7/6
f 437/6/6 438/6/6 439/6/6
f 439/6/6 438/6/6 440/6/6
